REM DIRINDEX 1\2\5,1\2\6,1\3\7,1\3\8,1\4\9,1\4\10
REM DIRNAME cjc079,folder01,folder02,folder03,folder04,folder05,folder06,folder07,folder08,folder09
TITLE ""
FILE "Track39.mp3" MP3
  TRACK 01 AUDIO
    TITLE "10:cjc079_1625"
    INDEX 01 00:00:00
  TRACK 02 AUDIO
    TITLE "10:cjc079_1626"
    INDEX 01 00:05:40
  TRACK 03 AUDIO
    TITLE "9:cjc079_1627"
    INDEX 01 00:08:13
  TRACK 04 AUDIO
    TITLE "0:"
    INDEX 01 00:09:42
  TRACK 05 AUDIO
    TITLE "10:cjc079_1628"
    INDEX 01 00:10:53
  TRACK 06 AUDIO
    TITLE "9:cjc079_1629"
    INDEX 01 00:13:14
  TRACK 07 AUDIO
    TITLE "0:"
    INDEX 01 00:14:37
  TRACK 08 AUDIO
    TITLE "10:cjc079_1630"
    INDEX 01 00:15:52
  TRACK 09 AUDIO
    TITLE "9:cjc079_1631"
    INDEX 01 00:18:19
  TRACK 10 AUDIO
    TITLE "0:"
    INDEX 01 00:19:58
  TRACK 11 AUDIO
    TITLE "10:cjc079_1632"
    INDEX 01 00:20:67
  TRACK 12 AUDIO
    TITLE "9:cjc079_1633"
    INDEX 01 00:23:30
  TRACK 13 AUDIO
    TITLE "0:"
    INDEX 01 00:24:47
  TRACK 14 AUDIO
    TITLE "10:cjc079_1634"
    INDEX 01 00:25:48
  TRACK 15 AUDIO
    TITLE "9:cjc079_1635"
    INDEX 01 00:28:06
  TRACK 16 AUDIO
    TITLE "0:"
    INDEX 01 00:29:40
  TRACK 17 AUDIO
    TITLE "10:cjc079_1636"
    INDEX 01 00:30:48
  TRACK 18 AUDIO
    TITLE "9:cjc079_1637"
    INDEX 01 00:33:15
  TRACK 19 AUDIO
    TITLE "0:"
    INDEX 01 00:34:32
  TRACK 20 AUDIO
    TITLE "10:cjc079_1638"
    INDEX 01 00:35:39
  TRACK 21 AUDIO
    TITLE "9:cjc079_1639"
    INDEX 01 00:38:08
  TRACK 22 AUDIO
    TITLE "0:"
    INDEX 01 00:39:41
  TRACK 23 AUDIO
    TITLE "10:cjc079_1640"
    INDEX 01 00:40:46
  TRACK 24 AUDIO
    TITLE "9:cjc079_1641"
    INDEX 01 00:43:15
  TRACK 25 AUDIO
    TITLE "0:"
    INDEX 01 00:44:36
  TRACK 26 AUDIO
    TITLE "10:cjc079_1642"
    INDEX 01 00:45:43
  TRACK 27 AUDIO
    TITLE "9:cjc079_1643"
    INDEX 01 00:48:16
  TRACK 28 AUDIO
    TITLE "0:"
    INDEX 01 00:49:41
  TRACK 29 AUDIO
    TITLE "10:cjc079_1644"
    INDEX 01 00:50:48
  TRACK 30 AUDIO
    TITLE "9:cjc079_1645"
    INDEX 01 00:52:69
  TRACK 31 AUDIO
    TITLE "0:"
    INDEX 01 00:54:19
  TRACK 32 AUDIO
    TITLE "10:cjc079_1646"
    INDEX 01 00:55:26
  TRACK 33 AUDIO
    TITLE "9:cjc079_1647"
    INDEX 01 00:57:68
  TRACK 34 AUDIO
    TITLE "0:"
    INDEX 01 00:59:10
  TRACK 35 AUDIO
    TITLE "10:cjc079_1648"
    INDEX 01 01:00:15
  TRACK 36 AUDIO
    TITLE "9:cjc079_1649"
    INDEX 01 01:02:50
  TRACK 37 AUDIO
    TITLE "0:"
    INDEX 01 01:04:23
  TRACK 38 AUDIO
    TITLE "10:cjc079_1650"
    INDEX 01 01:05:32
  TRACK 39 AUDIO
    TITLE "9:cjc079_1651"
    INDEX 01 01:07:74
  TRACK 40 AUDIO
    TITLE "0:"
    INDEX 01 01:09:16
  TRACK 41 AUDIO
    TITLE "10:cjc079_1652"
    INDEX 01 01:10:24
  TRACK 42 AUDIO
    TITLE "9:cjc079_1653"
    INDEX 01 01:12:66
  TRACK 43 AUDIO
    TITLE "0:"
    INDEX 01 01:14:27
  TRACK 44 AUDIO
    TITLE "10:cjc079_1654"
    INDEX 01 01:15:31
  TRACK 45 AUDIO
    TITLE "9:cjc079_1655"
    INDEX 01 01:18:00
  TRACK 46 AUDIO
    TITLE "0:"
    INDEX 01 01:19:42
  TRACK 47 AUDIO
    TITLE "10:cjc079_1656"
    INDEX 01 01:20:55
  TRACK 48 AUDIO
    TITLE "9:cjc079_1657"
    INDEX 01 01:23:24
  TRACK 49 AUDIO
    TITLE "0:"
    INDEX 01 01:24:57
  TRACK 50 AUDIO
    TITLE "10:cjc079_1658"
    INDEX 01 01:25:68
  TRACK 51 AUDIO
    TITLE "9:cjc079_1659"
    INDEX 01 01:28:33
  TRACK 52 AUDIO
    TITLE "0:"
    INDEX 01 01:29:62
  TRACK 53 AUDIO
    TITLE "10:cjc079_1660"
    INDEX 01 01:30:69
  TRACK 54 AUDIO
    TITLE "9:cjc079_1661"
    INDEX 01 01:33:40
  TRACK 55 AUDIO
    TITLE "0:"
    INDEX 01 01:34:59
  TRACK 56 AUDIO
    TITLE "10:cjc079_1662"
    INDEX 01 01:35:71
  TRACK 57 AUDIO
    TITLE "9:cjc079_1663"
    INDEX 01 01:38:40
  TRACK 58 AUDIO
    TITLE "0:"
    INDEX 01 01:40:03
  TRACK 59 AUDIO
    TITLE "10:cjc079_1664"
    INDEX 01 01:41:16
  TRACK 60 AUDIO
    TITLE "9:cjc079_1665"
    INDEX 01 01:42:73
  TRACK 61 AUDIO
    TITLE "0:"
    INDEX 01 01:44:28
  TRACK 62 AUDIO
    TITLE "10:cjc079_1666"
    INDEX 01 01:45:36
  TRACK 63 AUDIO
    TITLE "9:cjc079_1667"
    INDEX 01 01:47:46
  TRACK 64 AUDIO
    TITLE "0:"
    INDEX 01 01:49:00
  TRACK 65 AUDIO
    TITLE "10:cjc079_1668"
    INDEX 01 01:50:11
  TRACK 66 AUDIO
    TITLE "9:cjc079_1669"
    INDEX 01 01:52:14
  TRACK 67 AUDIO
    TITLE "0:"
    INDEX 01 01:53:41
  TRACK 68 AUDIO
    TITLE "10:cjc079_1670"
    INDEX 01 01:54:52
  TRACK 69 AUDIO
    TITLE "9:cjc079_1671"
    INDEX 01 01:56:59
  TRACK 70 AUDIO
    TITLE "0:"
    INDEX 01 01:58:05
  TRACK 71 AUDIO
    TITLE "10:cjc079_1672"
    INDEX 01 01:59:14
  TRACK 72 AUDIO
    TITLE "9:cjc079_1673"
    INDEX 01 02:01:21
  TRACK 73 AUDIO
    TITLE "0:"
    INDEX 01 02:02:54
  TRACK 74 AUDIO
    TITLE "10:cjc079_1674"
    INDEX 01 02:03:65
  TRACK 75 AUDIO
    TITLE "9:cjc079_1675"
    INDEX 01 02:05:66
  TRACK 76 AUDIO
    TITLE "0:"
    INDEX 01 02:07:16
  TRACK 77 AUDIO
    TITLE "10:cjc079_1676"
    INDEX 01 02:08:31
  TRACK 78 AUDIO
    TITLE "9:cjc079_1677"
    INDEX 01 02:10:43
  TRACK 79 AUDIO
    TITLE "0:"
    INDEX 01 02:12:03
  TRACK 80 AUDIO
    TITLE "10:cjc079_1678"
    INDEX 01 02:13:09
  TRACK 81 AUDIO
    TITLE "9:cjc079_1679"
    INDEX 01 02:15:29
  TRACK 82 AUDIO
    TITLE "0:"
    INDEX 01 02:16:58
  TRACK 83 AUDIO
    TITLE "10:cjc079_1680"
    INDEX 01 02:17:67
  TRACK 84 AUDIO
    TITLE "9:cjc079_1681"
    INDEX 01 02:20:12
  TRACK 85 AUDIO
    TITLE "0:"
    INDEX 01 02:21:39
  TRACK 86 AUDIO
    TITLE "10:cjc079_1682"
    INDEX 01 02:22:53
  TRACK 87 AUDIO
    TITLE "9:cjc079_1683"
    INDEX 01 02:24:73
  TRACK 88 AUDIO
    TITLE "0:"
    INDEX 01 02:26:33
  TRACK 89 AUDIO
    TITLE "10:cjc079_1684"
    INDEX 01 02:27:46
  TRACK 90 AUDIO
    TITLE "9:cjc079_1685"
    INDEX 01 02:29:60
  TRACK 91 AUDIO
    TITLE "0:"
    INDEX 01 02:31:12
